<?xml version="1.0" encoding="UTF-8"?>
<svg version="1.1" xmlns="http://www.w3.org/2000/svg" width="209" height="191">
<path d="M0 0 C2.54686169 0.8286049 3.68602208 1.61982176 5.52266121 3.53552151 C6.07051277 4.09626369 6.61836433 4.65700588 7.18281746 5.23474026 C8.01619637 6.1183926 8.01619637 6.1183926 8.86641121 7.01989651 C9.69979012 7.88034573 9.69979012 7.88034573 10.55000496 8.75817776 C11.64624082 9.89052492 12.73837855 11.02685568 13.82612801 12.16735744 C15.23078642 13.62878998 16.66624505 15.06045906 18.10469246 16.48864651 C19.87892417 18.27819973 21.49301044 20.04932411 23.05391121 22.01989651 C25.0706434 24.78731845 25.0706434 24.78731845 27.36641121 25.76989651 C27.62035652 25.02868557 27.87430183 24.28747463 28.13594246 23.52380276 C31.52870506 15.93047695 39.01408666 10.95813969 46.48750496 7.90270901 C58.85397585 3.40191371 71.98969891 4.14403195 84.06562996 9.51989651 C97.30953106 16.71522478 104.73665561 27.57201172 109.67891121 41.45739651 C112.49355581 55.00632299 110.42042663 69.20309017 103.39375496 81.11364651 C97.50655303 89.47677448 97.50655303 89.47677448 93.36641121 91.76989651 C88.48501534 91.51702556 86.34696011 89.217967 83.02266121 85.81677151 C82.53108528 85.31953579 82.03950935 84.82230007 81.53303719 84.3099966 C79.96781733 82.72247327 78.41706176 81.12164092 76.86641121 79.51989651 C75.82437767 78.45778026 74.78141742 77.39657235 73.73750496 76.33630276 C71.80779408 74.3740394 69.88495374 72.40586425 67.96602058 70.43298244 C63.16810701 65.41988203 63.16810701 65.41988203 57.92891121 60.89489651 C55.19091016 58.62435905 53.10523841 56.15800081 50.83906746 53.43395901 C48.89926128 51.24202948 46.68240433 49.55142968 44.36641121 47.76989651 C41.52556034 45.0747303 38.93152712 42.27433905 36.42891121 39.26989651 C33.67881141 36.00549233 30.71955245 33.40450749 27.36641121 30.76989651 C21.018056 36.08178556 15.2301573 41.85295853 9.47163582 47.7896719 C8.84136482 48.43154446 8.21109383 49.07341702 7.56172371 49.73474026 C6.99469734 50.318605 6.42767097 50.90246975 5.84346199 51.50402737 C4.36641121 52.76989651 4.36641121 52.76989651 2.36641121 52.76989651 C0.474957 55.98074718 0.11308242 58.35262549 0.10139656 62.05886745 C0.0931234 63.13007336 0.08485023 64.20127926 0.07632637 65.30494595 C0.07730827 66.47496655 0.07829018 67.64498714 0.07930183 68.85046291 C0.0724688 70.0865379 0.06563576 71.32261288 0.05859566 72.59614468 C0.0449996 75.28137116 0.03496156 77.96633701 0.0308857 80.65156841 C0.0241697 84.89513739 0.00241431 89.13854743 -0.02165031 93.38204861 C-0.07476395 103.15289096 -0.10818451 112.92378221 -0.14140892 122.69470882 C-0.17207296 131.65559681 -0.20685831 140.61641646 -0.25771952 149.57721555 C-0.28110602 153.79826582 -0.29481822 158.01920506 -0.30121422 162.24031377 C-0.30852735 165.47628797 -0.32854029 168.71218905 -0.34647942 171.94811916 C-0.34549751 173.12218822 -0.34451561 174.29625729 -0.34350395 175.5059042 C-0.35177711 176.57147045 -0.36005028 177.63703671 -0.36857414 178.73489285 C-0.37150726 179.66439566 -0.37444038 180.59389847 -0.37746239 181.55156803 C-0.63358879 183.76989651 -0.63358879 183.76989651 -2.63358879 185.76989651 C-5.1787709 186.08403518 -7.62376952 186.27828167 -10.17924309 186.38439846 C-11.31791974 186.4406903 -11.31791974 186.4406903 -12.47959995 186.49811935 C-20.61902836 186.87045839 -28.75655114 186.93387115 -36.90312004 186.93786526 C-38.48349854 186.94109077 -40.06387676 186.94445573 -41.64425468 186.94795132 C-44.91552742 186.95386575 -48.186774 186.95579857 -51.45805168 186.95519924 C-55.64642504 186.95509642 -59.83463343 186.96890499 -64.02296734 186.98597145 C-67.26829619 186.99707075 -70.51358431 186.99911932 -73.75893021 186.99858952 C-75.30468327 186.99976671 -76.85043748 187.00417386 -78.39617157 187.01192188 C-80.54419853 187.02170804 -82.69185484 187.0188527 -84.83988762 187.01281643 C-86.66825912 187.01495396 -86.66825912 187.01495396 -88.53356743 187.01713467 C-91.48592929 186.7816729 -93.15148679 186.32151978 -95.63358879 184.76989651 C-95.79600742 173.04334501 -95.92027409 161.31706248 -95.99627399 149.58961391 C-96.03275651 144.14360643 -96.0822162 138.69837026 -96.16166496 133.25280666 C-96.23790192 127.99428673 -96.27961654 122.73650713 -96.29772949 117.47747707 C-96.31063186 115.47438818 -96.33582819 113.47133837 -96.37369919 111.46856594 C-96.42476367 108.655369 -96.43150257 105.84520345 -96.42826653 103.03161526 C-96.45343346 102.20946026 -96.47860039 101.38730526 -96.50452995 100.54023647 C-96.43263874 94.73758833 -94.71609831 91.88557315 -90.69415569 87.76892185 C-90.01416862 87.10924349 -89.33418154 86.44956512 -88.63358879 85.76989651 C-87.27500967 84.35954646 -85.91736399 82.94829676 -84.56056023 81.53623867 C-83.05072379 80.00551112 -81.53830634 78.47732635 -80.02372551 76.95129299 C-79.19192772 76.10971142 -78.36012993 75.26812984 -77.50312614 74.4010458 C-74.776321 71.64455704 -72.04546747 68.89214016 -69.31327629 66.14099026 C-68.8467636 65.67118024 -68.3802509 65.20137022 -67.89960146 64.71732354 C-63.49559408 60.28260896 -59.08956831 55.84990882 -54.67870712 51.42201042 C-49.05514493 45.77645759 -43.4419471 40.12101116 -37.84208286 34.45194858 C-33.89056756 30.45327352 -29.92769788 26.46608053 -25.95617306 22.48727947 C-23.58823286 20.11438125 -21.22563221 17.73667878 -18.87513161 15.34649372 C-16.25874849 12.69148951 -13.62436545 10.05574031 -10.98466301 7.42394924 C-10.20947319 6.62875881 -9.43428337 5.83356838 -8.63560295 5.01428127 C-7.9152285 4.30359997 -7.19485405 3.59291866 -6.45265007 2.86070156 C-5.83215719 2.23597674 -5.21166431 1.61125193 -4.57236862 0.96759605 C-2.63358879 -0.23010349 -2.63358879 -0.23010349 0 0 Z " fill="#2D6667" transform="translate(96.63358879089355,1.2301034927368164)"/>
<path d="M0 0 C31.02 0 62.04 0 94 0 C94.020625 14.994375 94.04125 29.98875 94.0625 45.4375 C94.071604 50.17923584 94.08070801 54.92097168 94.09008789 59.80639648 C94.09460449 65.57824707 94.09460449 65.57824707 94.09544373 68.27674866 C94.09698348 70.1692071 94.10050903 72.06166454 94.10557556 73.95411682 C94.11285146 76.81374833 94.11390747 79.67331967 94.11352539 82.53295898 C94.1171235 83.38188186 94.12072161 84.23080473 94.12442875 85.10545254 C94.11402634 90.88597366 94.11402634 90.88597366 93 92 C90.49915414 92.24195981 88.02424308 92.42051657 85.5168457 92.55200195 C84.75321622 92.59404157 83.98958673 92.63608118 83.20281696 92.67939472 C75.04562824 93.09721734 66.89665805 93.16396502 58.73046875 93.16796875 C57.15009025 93.17119426 55.56971203 93.17455922 53.98933411 93.17805481 C50.71806137 93.18396924 47.44681479 93.18590206 44.17553711 93.18530273 C39.98716375 93.18519991 35.79895536 93.19900848 31.61062145 93.21607494 C28.3652926 93.22717424 25.12000448 93.22922281 21.87465858 93.22869301 C20.32890552 93.22987021 18.78315131 93.23427735 17.23741722 93.24202538 C15.08939026 93.25181153 12.94173396 93.2489562 10.79370117 93.24291992 C9.57478683 93.24434494 8.3558725 93.24576996 7.10002136 93.24723816 C4 93 4 93 0 91 C0 60.97 0 30.94 0 0 Z " fill="#C7592E" transform="translate(1,95)"/>
<path d="M0 0 C0.97410072 -0.0076664 0.97410072 -0.0076664 1.96788025 -0.01548767 C4.10156619 -0.02932078 6.23492707 -0.02843248 8.36865234 -0.02612305 C9.85647704 -0.03001193 11.34430064 -0.034347 12.8321228 -0.03910828 C15.9439454 -0.04655581 19.05565448 -0.04628879 22.16748047 -0.04101562 C26.15687012 -0.03520658 30.14579767 -0.05219319 34.13511086 -0.0753603 C37.20458698 -0.09007898 40.27395111 -0.0909722 43.34345627 -0.08785057 C44.81467991 -0.08836419 46.28590976 -0.0936096 47.75709915 -0.10366249 C49.81103057 -0.11598132 51.86405222 -0.10926518 53.91796875 -0.09765625 C55.67072617 -0.09860039 55.67072617 -0.09860039 57.45889282 -0.0995636 C60.32958984 0.2746582 60.32958984 0.2746582 62.20605469 1.2747345 C64.04320219 4.54490796 63.74524955 7.99279632 63.71777344 11.64575195 C63.7230304 12.49968536 63.72828735 13.35361877 63.73370361 14.23342896 C63.74692174 17.05985738 63.73815917 19.88572392 63.72802734 22.7121582 C63.73004756 24.67366647 63.73295856 26.635174 63.73672485 28.59667969 C63.74115066 32.70913844 63.73470886 36.82140183 63.72070312 40.93383789 C63.70361114 46.21017508 63.71345094 51.48605449 63.73142052 56.76237488 C63.74225139 60.81322694 63.73881521 64.86397013 63.73103714 68.91482544 C63.72903321 70.86052504 63.73150116 72.80623447 63.7384758 74.75192261 C63.74607881 77.46940361 63.73450237 80.1861391 63.71777344 82.90356445 C63.72384613 83.71093048 63.72991882 84.51829651 63.73617554 85.35012817 C63.67518142 90.68733169 63.67518142 90.68733169 62.15222168 93.27557373 C59.60517177 94.67175148 57.6812128 94.64165901 54.77929688 94.63110352 C53.64025909 94.63410461 52.50122131 94.63710571 51.32766724 94.64019775 C49.47623611 94.62167755 49.47623611 94.62167755 47.58740234 94.6027832 C46.31291229 94.60091003 45.03842224 94.59903687 43.72531128 94.59710693 C41.01986211 94.59037342 38.31515871 94.57807971 35.60986328 94.5559082 C32.17979646 94.5279093 28.74996582 94.51672459 25.31979561 94.5122261 C22.01312951 94.50700321 18.70654082 94.49246174 15.39990234 94.4777832 C14.18585724 94.47353333 12.97181213 94.46928345 11.72097778 94.46490479 C3.88564489 94.4005951 -3.866614 93.97763349 -11.67041016 93.2746582 C-12.41304809 87.36848344 -12.79696765 81.67233673 -12.69213867 75.72558594 C-12.67772736 74.5239254 -12.67772736 74.5239254 -12.6630249 73.29798889 C-12.63038981 70.68464351 -12.58992584 68.07148451 -12.54931641 65.45825195 C-12.52498046 63.63266125 -12.50113872 61.80706389 -12.47776794 59.98146057 C-12.41527241 55.20242677 -12.34611004 50.42351235 -12.2755127 45.64459229 C-12.20451517 40.75766383 -12.13988696 35.87065148 -12.07470703 30.98364258 C-11.94614055 21.41388889 -11.81052389 11.84424931 -11.67041016 2.2746582 C-7.6504729 0.37799858 -4.42706514 0.01743209 0 0 Z M9.32958984 24.2746582 C9.32958984 29.8846582 9.32958984 35.4946582 9.32958984 41.2746582 C13.28958984 41.2746582 17.24958984 41.2746582 21.32958984 41.2746582 C21.32958984 35.6646582 21.32958984 30.0546582 21.32958984 24.2746582 C17.36958984 24.2746582 13.40958984 24.2746582 9.32958984 24.2746582 Z M28.32958984 25.2746582 C28.25639363 27.97120674 28.23716447 30.64157278 28.26708984 33.3371582 C28.27160156 34.09577148 28.27611328 34.85438477 28.28076172 35.63598633 C28.29258304 37.51557692 28.31051907 39.39512719 28.32958984 41.2746582 C32.61958984 41.2746582 36.90958984 41.2746582 41.32958984 41.2746582 C41.35643663 38.62875806 41.37635341 35.98312725 41.39208984 33.3371582 C41.40046875 32.58241211 41.40884766 31.82766602 41.41748047 31.05004883 C41.42611425 29.12471507 41.38183317 27.19930239 41.32958984 25.2746582 C40.27358607 23.99595438 40.27358607 23.99595438 37.86083984 24.1418457 C36.86052734 24.14442383 35.86021484 24.14700195 34.82958984 24.1496582 C33.32912109 24.14579102 33.32912109 24.14579102 31.79833984 24.1418457 C29.38559362 23.99595438 29.38559362 23.99595438 28.32958984 25.2746582 Z M9.32958984 48.2746582 C9.32958984 53.8846582 9.32958984 59.4946582 9.32958984 65.2746582 C16.01525973 66.62596833 16.01525973 66.62596833 21.32958984 65.2746582 C21.32958984 59.6646582 21.32958984 54.0546582 21.32958984 48.2746582 C17.36958984 48.2746582 13.40958984 48.2746582 9.32958984 48.2746582 Z M28.32958984 48.2746582 C28.32958984 53.8846582 28.32958984 59.4946582 28.32958984 65.2746582 C32.61958984 65.2746582 36.90958984 65.2746582 41.32958984 65.2746582 C41.32958984 59.6646582 41.32958984 54.0546582 41.32958984 48.2746582 C37.03958984 48.2746582 32.74958984 48.2746582 28.32958984 48.2746582 Z " fill="#DC9624" transform="translate(127.67041015625,93.725341796875)"/>
<path d="M0 0 C9.48439758 9.92842368 13.27746454 21.98874376 13.27270508 35.51513672 C12.85224329 49.07307572 7.76005272 61.3296448 -2.09765625 70.7890625 C-4.1640625 71.93359375 -4.1640625 71.93359375 -6.45922852 71.81469727 C-10.0936391 70.63078285 -11.84175398 68.70819766 -14.5078125 65.98046875 C-14.99938843 65.48323303 -15.49096436 64.98599731 -15.99743652 64.47369385 C-17.56265637 62.88617051 -19.11341195 61.28533817 -20.6640625 59.68359375 C-21.70609604 58.6214775 -22.74905629 57.56026959 -23.79296875 56.5 C-25.72267963 54.53773665 -27.64551997 52.5695615 -29.56445312 50.59667969 C-34.3623667 45.58357927 -34.3623667 45.58357927 -39.6015625 41.05859375 C-42.33956355 38.78805629 -44.4252353 36.32169806 -46.69140625 33.59765625 C-48.63121243 31.40572672 -50.84806938 29.71512692 -53.1640625 27.93359375 C-56.58416187 24.68888409 -59.64170963 21.2345215 -62.6796875 17.640625 C-64.7270539 15.28615364 -66.92787495 13.10766497 -69.1640625 10.93359375 C-69.8240625 10.27359375 -70.4840625 9.61359375 -71.1640625 8.93359375 C-70.94868637 4.38761905 -68.94404187 2.11678357 -65.9140625 -1.12890625 C-65.14578125 -1.96550781 -64.3775 -2.80210938 -63.5859375 -3.6640625 C-56.70499174 -10.48951677 -48.25423242 -14.2649773 -38.48046875 -15.1015625 C-22.82467601 -14.8639535 -11.24832193 -10.74072618 0 0 Z " fill="#E0681E" transform="translate(194.1640625,21.06640625)"/>
<path d="M0 0 C31.02 0 62.04 0 94 0 C94.020625 14.994375 94.04125 29.98875 94.0625 45.4375 C94.071604 50.17923584 94.08070801 54.92097168 94.09008789 59.80639648 C94.09460449 65.57824707 94.09460449 65.57824707 94.09544373 68.27674866 C94.09698348 70.1692071 94.10050903 72.06166454 94.10557556 73.95411682 C94.11285146 76.81374833 94.11390747 79.67331967 94.11352539 82.53295898 C94.1171235 83.38188186 94.12072161 84.23080473 94.12442875 85.10545254 C94.11402634 90.88597366 94.11402634 90.88597366 93 92 C90.49915414 92.24195981 88.02424308 92.42051657 85.5168457 92.55200195 C84.75321622 92.59404157 83.98958673 92.63608118 83.20281696 92.67939472 C75.04562824 93.09721734 66.89665805 93.16396502 58.73046875 93.16796875 C57.15009025 93.17119426 55.56971203 93.17455922 53.98933411 93.17805481 C50.71806137 93.18396924 47.44681479 93.18590206 44.17553711 93.18530273 C39.98716375 93.18519991 35.79895536 93.19900848 31.61062145 93.21607494 C28.3652926 93.22717424 25.12000448 93.22922281 21.87465858 93.22869301 C20.32890552 93.22987021 18.78315131 93.23427735 17.23741722 93.24202538 C15.08939026 93.25181153 12.94173396 93.2489562 10.79370117 93.24291992 C9.57478683 93.24434494 8.3558725 93.24576996 7.10002136 93.24723816 C4 93 4 93 0 91 C0 60.97 0 30.94 0 0 Z M2 2 C2 30.71 2 59.42 2 89 C31.69197413 89.09396194 61.3212808 88.81938457 91 88 C91.96556481 59.32067065 92.08294302 30.69828662 92 2 C62.3 2 32.6 2 2 2 Z " fill="#B3522C" transform="translate(1,95)"/>
<path d="M0 0 C0.7424059 0.23243503 1.4848118 0.46487005 2.24971485 0.70434856 C2.24971485 1.69434856 2.24971485 2.68434856 2.24971485 3.70434856 C1.50721485 3.82809856 0.76471485 3.95184856 -0.00028515 4.07934856 C-2.6282215 4.67660683 -4.50294501 5.2319533 -6.75028515 6.70434856 C-7.05780807 7.32402036 -7.36533098 7.94369215 -7.68217278 8.58214188 C-8.78665154 10.77660407 -9.92009626 12.12086773 -11.65258312 13.84715557 C-12.24551159 14.44283337 -12.83844006 15.03851116 -13.44933605 15.6522398 C-14.09819271 16.29390591 -14.74704937 16.93557201 -15.41556835 17.59668255 C-16.4427145 18.62426678 -16.4427145 18.62426678 -17.49061108 19.67261028 C-19.75605455 21.93666033 -22.02850369 24.1935402 -24.3010664 26.45044231 C-25.87850368 28.02414751 -27.45549853 29.59829631 -29.03206921 31.17286968 C-33.1866713 35.31983414 -37.34723924 39.46076281 -41.50907421 43.60046673 C-45.73303136 47.80403097 -49.9513993 52.01319548 -54.17020702 56.22192669 C-60.99124961 63.02538624 -67.81572139 69.82538311 -74.64464855 76.62092876 C-78.01760802 79.97767752 -81.38693431 83.33796484 -84.75028515 86.70434856 C-86.41695182 88.37101523 -88.08361848 90.0376819 -89.75028515 91.70434856 C-61.70028515 91.70434856 -33.65028515 91.70434856 -4.75028515 91.70434856 C-4.75028515 80.81434856 -4.75028515 69.92434856 -4.75028515 58.70434856 C-2.91659181 54.12011521 -1.96634537 52.55668921 1.38252735 49.27856731 C2.59102345 48.08457317 2.59102345 48.08457317 3.8239336 46.86645794 C4.66569141 46.04983685 5.50744923 45.23321575 6.37471485 44.39184856 C7.22420704 43.55589153 8.07369923 42.7199345 8.9489336 41.85864544 C11.04258626 39.80027906 13.1429231 37.74925054 15.24971485 35.70434856 C16.73471485 36.19934856 16.73471485 36.19934856 18.24971485 36.70434856 C16.58508447 40.9907718 13.45895648 43.79052074 10.24971485 46.95434856 C9.70315235 47.50864544 9.15658985 48.06294231 8.59346485 48.63403606 C4.50310155 52.70434856 4.50310155 52.70434856 2.24971485 52.70434856 C0.35816817 55.91648572 -0.00677712 58.29932722 -0.02875805 62.00677776 C-0.03992153 63.08087399 -0.05108501 64.15497021 -0.06258678 65.2616148 C-0.06474697 66.43477749 -0.06690716 67.60794018 -0.0691328 68.81665325 C-0.07917843 70.05594082 -0.08922405 71.29522839 -0.09957409 72.57207012 C-0.12516492 75.96638963 -0.14202069 79.36054201 -0.15500212 82.75491905 C-0.17063658 86.30372339 -0.19742579 89.85244307 -0.22303295 93.40118694 C-0.26981518 100.11943088 -0.30656195 106.83769075 -0.33970582 113.5560143 C-0.37793116 121.20534876 -0.42734023 128.85459818 -0.47768998 136.50386095 C-0.58100155 152.23729535 -0.67026444 167.97077743 -0.75028515 183.70434856 C-1.08028515 183.70434856 -1.41028515 183.70434856 -1.75028515 183.70434856 C-1.75028515 154.00434856 -1.75028515 124.30434856 -1.75028515 93.70434856 C-32.44028515 93.70434856 -63.13028515 93.70434856 -94.75028515 93.70434856 C-92.99983862 90.20345551 -91.79137102 88.48874089 -89.1266737 85.79985332 C-88.3738763 85.03563564 -87.62107891 84.27141796 -86.84546947 83.48404217 C-85.60568844 82.24090755 -85.60568844 82.24090755 -84.34086132 80.97265911 C-83.47077938 80.09264736 -82.60069744 79.21263561 -81.70424938 78.30595684 C-79.31974489 75.89726788 -76.93070451 73.49328887 -74.53853679 71.09222293 C-73.04440098 69.59221891 -71.55144396 68.09105131 -70.05884266 66.58952045 C-65.38882452 61.89217886 -60.71483708 57.19884143 -56.03500384 52.51127785 C-50.63143353 47.09873219 -45.24121319 41.67334029 -39.86215895 36.23643178 C-35.70279383 32.0338886 -31.53202377 27.84289247 -27.35235292 23.66054469 C-24.85605885 21.16215183 -22.36488896 18.65910919 -19.88543797 16.14399052 C-17.1227599 13.3423445 -14.33663455 10.56478101 -11.54789257 7.78906536 C-10.72744457 6.9501878 -9.90699657 6.11131023 -9.06168652 5.24701214 C-8.30042965 4.49689358 -7.53917278 3.74677502 -6.75484753 2.97392559 C-6.09836318 2.31450812 -5.44187883 1.65509066 -4.76550102 0.97569084 C-2.75028515 -0.29565144 -2.75028515 -0.29565144 0 0 Z " fill="#31423E" transform="translate(96.7502851486206,1.2956514358520508)"/>
<path d="M0 0 C0.97410072 -0.0076664 0.97410072 -0.0076664 1.96788025 -0.01548767 C4.10156619 -0.02932078 6.23492707 -0.02843248 8.36865234 -0.02612305 C9.85647704 -0.03001193 11.34430064 -0.034347 12.8321228 -0.03910828 C15.9439454 -0.04655581 19.05565448 -0.04628879 22.16748047 -0.04101562 C26.15687012 -0.03520658 30.14579767 -0.05219319 34.13511086 -0.0753603 C37.20458698 -0.09007898 40.27395111 -0.0909722 43.34345627 -0.08785057 C44.81467991 -0.08836419 46.28590976 -0.0936096 47.75709915 -0.10366249 C49.81103057 -0.11598132 51.86405222 -0.10926518 53.91796875 -0.09765625 C55.67072617 -0.09860039 55.67072617 -0.09860039 57.45889282 -0.0995636 C60.32958984 0.2746582 60.32958984 0.2746582 62.20605469 1.2747345 C64.04320219 4.54490796 63.74524955 7.99279632 63.71777344 11.64575195 C63.7230304 12.49968536 63.72828735 13.35361877 63.73370361 14.23342896 C63.74692174 17.05985738 63.73815917 19.88572392 63.72802734 22.7121582 C63.73004756 24.67366647 63.73295856 26.635174 63.73672485 28.59667969 C63.74115066 32.70913844 63.73470886 36.82140183 63.72070312 40.93383789 C63.70361114 46.21017508 63.71345094 51.48605449 63.73142052 56.76237488 C63.74225139 60.81322694 63.73881521 64.86397013 63.73103714 68.91482544 C63.72903321 70.86052504 63.73150116 72.80623447 63.7384758 74.75192261 C63.74607881 77.46940361 63.73450237 80.1861391 63.71777344 82.90356445 C63.72384613 83.71093048 63.72991882 84.51829651 63.73617554 85.35012817 C63.67445219 90.75114161 63.67445219 90.75114161 62.00454712 93.28613281 C59.47053814 94.78165288 57.20032778 94.46604073 54.32958984 94.2746582 C54.32958984 93.9446582 54.32958984 93.6146582 54.32958984 93.2746582 C55.97958984 93.2746582 57.62958984 93.2746582 59.32958984 93.2746582 C59.82458984 91.7896582 59.82458984 91.7896582 60.32958984 90.2746582 C60.98958984 90.2746582 61.64958984 90.2746582 62.32958984 90.2746582 C62.24461579 82.91948165 62.14952109 75.56450591 62.04206276 68.20962143 C61.99245321 64.7931893 61.94612534 61.37678293 61.90771484 57.96020508 C61.86324256 54.01798224 61.8037454 50.07604994 61.74365234 46.1340332 C61.73210114 44.92728943 61.72054993 43.72054565 61.70864868 42.47723389 C61.61484542 36.99956097 61.3329242 31.79437979 60.30371094 26.40844727 C59.32958984 20.2746582 59.32958984 20.2746582 59.32958984 4.2746582 C36.88958984 4.2746582 14.44958984 4.2746582 -8.67041016 4.2746582 C-9.00041016 32.6546582 -9.33041016 61.0346582 -9.67041016 90.2746582 C11.44958984 90.2746582 32.56958984 90.2746582 54.32958984 90.2746582 C53.83458984 91.7596582 53.83458984 91.7596582 53.32958984 93.2746582 C47.60369919 94.25543247 42.06176999 94.42041479 36.25927734 94.4074707 C35.30119171 94.40842743 34.34310608 94.40938416 33.35598755 94.41036987 C31.33384129 94.41104802 29.31169281 94.40921926 27.28955078 94.4050293 C24.23513741 94.39971139 21.18087347 94.40496841 18.12646484 94.41137695 C8.14644787 94.41443362 -1.73506757 94.31885629 -11.67041016 93.2746582 C-12.41304809 87.36848344 -12.79696765 81.67233673 -12.69213867 75.72558594 C-12.67772736 74.5239254 -12.67772736 74.5239254 -12.6630249 73.29798889 C-12.63038981 70.68464351 -12.58992584 68.07148451 -12.54931641 65.45825195 C-12.52498046 63.63266125 -12.50113872 61.80706389 -12.47776794 59.98146057 C-12.41527241 55.20242677 -12.34611004 50.42351235 -12.2755127 45.64459229 C-12.20451517 40.75766383 -12.13988696 35.87065148 -12.07470703 30.98364258 C-11.94614055 21.41388889 -11.81052389 11.84424931 -11.67041016 2.2746582 C-7.6504729 0.37799858 -4.42706514 0.01743209 0 0 Z " fill="#B27B32" transform="translate(127.67041015625,93.725341796875)"/>
<path d="M0 0 C0.98822754 -0.00451172 1.97645508 -0.00902344 2.99462891 -0.01367188 C4.39140869 -0.01077148 4.39140869 -0.01077148 5.81640625 -0.0078125 C6.6576001 -0.00668457 7.49879395 -0.00555664 8.36547852 -0.00439453 C10.4375 0.125 10.4375 0.125 12.4375 1.125 C12.4375 7.725 12.4375 14.325 12.4375 21.125 C7.1575 21.125 1.8775 21.125 -3.5625 21.125 C-3.5625 22.775 -3.5625 24.425 -3.5625 26.125 C1.3875 26.125 6.3375 26.125 11.4375 26.125 C11.4375 32.065 11.4375 38.005 11.4375 44.125 C11.1075 44.125 10.7775 44.125 10.4375 44.125 C10.4375 38.515 10.4375 32.905 10.4375 27.125 C6.4775 27.455 2.5175 27.785 -1.5625 28.125 C-1.8925 33.735 -2.2225 39.345 -2.5625 45.125 C-4.0475 44.63 -4.0475 44.63 -5.5625 44.125 C-5.5625 42.475 -5.5625 40.825 -5.5625 39.125 C-6.5525 39.62 -6.5525 39.62 -7.5625 40.125 C-8.29325648 42.4390622 -8.96388258 44.77328869 -9.5625 47.125 C-11.35343191 47.20586147 -13.14539628 47.26412702 -14.9375 47.3125 C-16.43410156 47.36470703 -16.43410156 47.36470703 -17.9609375 47.41796875 C-18.81945312 47.32128906 -19.67796875 47.22460938 -20.5625 47.125 C-22.62973714 44.02414429 -22.80747423 43.39568319 -22.7578125 39.89453125 C-22.75136719 39.09208984 -22.74492187 38.28964844 -22.73828125 37.46289062 C-22.72152344 36.62951172 -22.70476562 35.79613281 -22.6875 34.9375 C-22.67847656 34.09251953 -22.66945312 33.24753906 -22.66015625 32.37695312 C-22.63660703 30.29284757 -22.60073647 28.20888783 -22.5625 26.125 C-17.9425 25.795 -13.3225 25.465 -8.5625 25.125 C-8.2325 23.805 -7.9025 22.485 -7.5625 21.125 C-6.9025 21.125 -6.2425 21.125 -5.5625 21.125 C-5.5625 18.815 -5.5625 16.505 -5.5625 14.125 C-6.5525 14.62 -6.5525 14.62 -7.5625 15.125 C-8.21805119 17.65233235 -8.21805119 17.65233235 -8.5625 20.125 C-8.8925 20.125 -9.2225 20.125 -9.5625 20.125 C-9.5625 14.515 -9.5625 8.905 -9.5625 3.125 C-11.975625 3.4034375 -11.975625 3.4034375 -14.4375 3.6875 C-19.3125 4.25 -19.3125 4.25 -21.5625 3.125 C-21.5625 8.735 -21.5625 14.345 -21.5625 20.125 C-21.8925 20.125 -22.2225 20.125 -22.5625 20.125 C-22.5625 13.855 -22.5625 7.585 -22.5625 1.125 C-15.02831829 0.21176585 -7.58036117 0.01471677 0 0 Z M-1.5625 1.125 C-2.81683458 4.88800374 -2.66945422 8.39710909 -2.625 12.3125 C-2.62048828 13.06208984 -2.61597656 13.81167969 -2.61132812 14.58398438 C-2.59956354 16.43102383 -2.58162865 18.27802213 -2.5625 20.125 C1.7275 20.125 6.0175 20.125 10.4375 20.125 C10.46434679 17.47909986 10.48426357 14.83346904 10.5 12.1875 C10.50837891 11.43275391 10.51675781 10.67800781 10.52539062 9.90039062 C10.53402441 7.97505687 10.48974333 6.04964419 10.4375 4.125 C8.87444509 2.56194509 7.16071782 2.81860032 5 2.625 C0.65667808 2.23458904 0.65667808 2.23458904 -1.5625 1.125 Z M-21.5625 27.125 C-21.5625 32.735 -21.5625 38.345 -21.5625 44.125 C-14.87683011 45.47631012 -14.87683011 45.47631012 -9.5625 44.125 C-9.5625 38.515 -9.5625 32.905 -9.5625 27.125 C-13.5225 27.125 -17.4825 27.125 -21.5625 27.125 Z " fill="#BE8028" transform="translate(158.5625,114.875)"/>
<path d="M0 0 C0.7424059 0.23243503 1.4848118 0.46487005 2.24971485 0.70434856 C2.24971485 1.69434856 2.24971485 2.68434856 2.24971485 3.70434856 C1.50721485 3.82809856 0.76471485 3.95184856 -0.00028515 4.07934856 C-2.6282215 4.67660683 -4.50294501 5.2319533 -6.75028515 6.70434856 C-7.05780807 7.32402036 -7.36533098 7.94369215 -7.68217278 8.58214188 C-8.78665154 10.77660407 -9.92009626 12.12086773 -11.65258312 13.84715557 C-12.24551159 14.44283337 -12.83844006 15.03851116 -13.44933605 15.6522398 C-14.09819271 16.29390591 -14.74704937 16.93557201 -15.41556835 17.59668255 C-16.4427145 18.62426678 -16.4427145 18.62426678 -17.49061108 19.67261028 C-19.75605455 21.93666033 -22.02850369 24.1935402 -24.3010664 26.45044231 C-25.87850368 28.02414751 -27.45549853 29.59829631 -29.03206921 31.17286968 C-33.1866713 35.31983414 -37.34723924 39.46076281 -41.50907421 43.60046673 C-45.73303136 47.80403097 -49.9513993 52.01319548 -54.17020702 56.22192669 C-60.99124961 63.02538624 -67.81572139 69.82538311 -74.64464855 76.62092876 C-80.85397828 82.7574758 -80.85397828 82.7574758 -86.93778515 89.01684856 C-88.75028515 90.70434856 -88.75028515 90.70434856 -90.75028515 90.70434856 C-91.08028515 91.69434856 -91.41028515 92.68434856 -91.75028515 93.70434856 C-92.74028515 93.70434856 -93.73028515 93.70434856 -94.75028515 93.70434856 C-93.32736076 90.47418342 -91.60502334 88.30070154 -89.1266737 85.79985332 C-88.3738763 85.03563564 -87.62107891 84.27141796 -86.84546947 83.48404217 C-85.60568844 82.24090755 -85.60568844 82.24090755 -84.34086132 80.97265911 C-83.47077938 80.09264736 -82.60069744 79.21263561 -81.70424938 78.30595684 C-79.31974489 75.89726788 -76.93070451 73.49328887 -74.53853679 71.09222293 C-73.04440098 69.59221891 -71.55144396 68.09105131 -70.05884266 66.58952045 C-65.38882452 61.89217886 -60.71483708 57.19884143 -56.03500384 52.51127785 C-50.63143353 47.09873219 -45.24121319 41.67334029 -39.86215895 36.23643178 C-35.70279383 32.0338886 -31.53202377 27.84289247 -27.35235292 23.66054469 C-24.85605885 21.16215183 -22.36488896 18.65910919 -19.88543797 16.14399052 C-17.1227599 13.3423445 -14.33663455 10.56478101 -11.54789257 7.78906536 C-10.72744457 6.9501878 -9.90699657 6.11131023 -9.06168652 5.24701214 C-8.30042965 4.49689358 -7.53917278 3.74677502 -6.75484753 2.97392559 C-6.09836318 2.31450812 -5.44187883 1.65509066 -4.76550102 0.97569084 C-2.75028515 -0.29565144 -2.75028515 -0.29565144 0 0 Z " fill="#1B4142" transform="translate(96.7502851486206,1.2956514358520508)"/>
<path d="M0 0 C2.57116224 2.57116224 2.23573 4.26613069 2.24884033 7.76997375 C2.24164978 8.57629745 2.23445923 9.38262115 2.22705078 10.21337891 C2.22734283 11.0622316 2.22763489 11.91108429 2.22793579 12.78565979 C2.22653928 15.59939699 2.21096303 18.41287139 2.1953125 21.2265625 C2.19158351 23.17426407 2.188736 25.12196752 2.18673706 27.06967163 C2.17909161 32.20224158 2.15943532 37.33469879 2.1373291 42.46722412 C2.11689028 47.70209223 2.10773955 52.93697851 2.09765625 58.171875 C2.07619027 68.44796627 2.04204336 78.72397377 2 89 C3.28777344 88.98839844 4.57554688 88.97679687 5.90234375 88.96484375 C7.58072772 88.9554673 9.25911326 88.94636695 10.9375 88.9375 C11.78763672 88.92912109 12.63777344 88.92074219 13.51367188 88.91210938 C14.32255859 88.90888672 15.13144531 88.90566406 15.96484375 88.90234375 C16.7137085 88.89710693 17.46257324 88.89187012 18.23413086 88.88647461 C20 89 20 89 21 90 C23.59359322 90.08851529 26.16039691 90.11525945 28.75390625 90.09765625 C29.52935287 90.0962413 30.3047995 90.09482635 31.10374451 90.09336853 C33.59003494 90.08775345 36.0762366 90.07519846 38.5625 90.0625 C40.24413933 90.05748694 41.92578006 90.0529237 43.60742188 90.04882812 C47.73831566 90.03777913 51.86914276 90.02050445 56 90 C56 90.66 56 91.32 56 92 C44.98825926 92.75976202 34.02211683 93.18648674 22.98364258 93.18530273 C20.64322035 93.18754237 18.30323339 93.2059564 15.96289062 93.22460938 C14.45833491 93.22753542 12.95377701 93.22952548 11.44921875 93.23046875 C10.41180794 93.24124702 10.41180794 93.24124702 9.35343933 93.25224304 C5.41421668 93.23346918 3.65155592 92.82577796 0 91 C0 60.97 0 30.94 0 0 Z " fill="#883723" transform="translate(1,95)"/>
<path d="M0 0 C30.69 0 61.38 0 93 0 C93 17.82 93 35.64 93 54 C92.01 54.495 92.01 54.495 91 55 C91 37.51 91 20.02 91 2 C60.97 2 30.94 2 0 2 C0 1.34 0 0.68 0 0 Z " fill="#93593F" transform="translate(2,95)"/>
<path d="M0 0 C1.09054688 0.02320312 2.18109375 0.04640625 3.3046875 0.0703125 C4.40039062 0.08835937 5.49609375 0.10640625 6.625 0.125 C7.46804687 0.14820312 8.31109375 0.17140625 9.1796875 0.1953125 C9.1796875 0.5253125 9.1796875 0.8553125 9.1796875 1.1953125 C5.5496875 1.1953125 1.9196875 1.1953125 -1.8203125 1.1953125 C-1.8203125 7.4653125 -1.8203125 13.7353125 -1.8203125 20.1953125 C2.7996875 20.1953125 7.4196875 20.1953125 12.1796875 20.1953125 C12.1796875 18.5453125 12.1796875 16.8953125 12.1796875 15.1953125 C13.1696875 14.5353125 14.1596875 13.8753125 15.1796875 13.1953125 C15.5096875 13.5253125 15.8396875 13.8553125 16.1796875 14.1953125 C15.89238695 16.53475986 15.56031971 18.8692268 15.1796875 21.1953125 C14.5196875 21.1953125 13.8596875 21.1953125 13.1796875 21.1953125 C12.8496875 22.8453125 12.5196875 24.4953125 12.1796875 26.1953125 C7.5596875 26.1953125 2.9396875 26.1953125 -1.8203125 26.1953125 C-1.67956045 29.13313719 -1.5329287 32.07046421 -1.3828125 35.0078125 C-1.34349609 35.84119141 -1.30417969 36.67457031 -1.26367188 37.53320312 C-1.22177734 38.33564453 -1.17988281 39.13808594 -1.13671875 39.96484375 C-1.10006104 40.70323486 -1.06340332 41.44162598 -1.02563477 42.20239258 C-0.87189109 44.4028075 -0.87189109 44.4028075 0.1796875 47.1953125 C-3.6953125 46.3203125 -3.6953125 46.3203125 -4.8203125 45.1953125 C-4.91898919 43.82705781 -4.95110318 42.45383805 -4.953125 41.08203125 C-4.95441406 40.24607422 -4.95570313 39.41011719 -4.95703125 38.54882812 C-4.95316406 37.66904297 -4.94929687 36.78925781 -4.9453125 35.8828125 C-4.94917969 35.01462891 -4.95304688 34.14644531 -4.95703125 33.25195312 C-4.95509766 31.9922168 -4.95509766 31.9922168 -4.953125 30.70703125 C-4.95199707 29.93834717 -4.95086914 29.16966309 -4.94970703 28.37768555 C-4.82056524 26.1995752 -4.41943955 24.2886874 -3.8203125 22.1953125 C-4.4803125 21.8653125 -5.1403125 21.5353125 -5.8203125 21.1953125 C-5.71068434 18.0695729 -5.58000009 14.94506469 -5.4453125 11.8203125 C-5.414375 10.93085937 -5.3834375 10.04140625 -5.3515625 9.125 C-5.31289062 8.27421875 -5.27421875 7.4234375 -5.234375 6.546875 C-5.2029541 5.76135254 -5.1715332 4.97583008 -5.13916016 4.16650391 C-4.5892291 0.76670043 -3.30338806 0.22876649 0 0 Z " fill="#C8892A" transform="translate(137.8203125,114.8046875)"/>
<path d="M0 0 C3.625 0.25 3.625 0.25 5.32730103 1.24243164 C7.40863194 4.46229554 7.0411081 7.90852353 7.01318359 11.62109375 C7.01844055 12.47502716 7.02369751 13.32896057 7.02911377 14.20877075 C7.0423319 17.03519917 7.03356932 19.86106572 7.0234375 22.6875 C7.02545771 24.64900826 7.02836871 26.6105158 7.03213501 28.57202148 C7.03656082 32.68448024 7.03011901 36.79674362 7.01611328 40.90917969 C6.99902129 46.18551687 7.0088611 51.46139629 7.02683067 56.73771667 C7.03766155 60.78856873 7.03422536 64.83931193 7.0264473 68.89016724 C7.02444336 70.83586684 7.02691131 72.78157627 7.03388596 74.7272644 C7.04148897 77.4447454 7.02991252 80.1614809 7.01318359 82.87890625 C7.01925629 83.68627228 7.02532898 84.49363831 7.03158569 85.32546997 C6.96986234 90.72648341 6.96986234 90.72648341 5.29995728 93.26147461 C2.76594829 94.75699468 0.49573794 94.44138253 -2.375 94.25 C-2.375 93.92 -2.375 93.59 -2.375 93.25 C-0.725 93.25 0.925 93.25 2.625 93.25 C3.12 91.765 3.12 91.765 3.625 90.25 C4.285 90.25 4.945 90.25 5.625 90.25 C5.54002594 82.89482345 5.44493125 75.53984771 5.33747292 68.18496323 C5.28786336 64.76853109 5.2415355 61.35212473 5.203125 57.93554688 C5.15865272 53.99332404 5.09915555 50.05139174 5.0390625 46.109375 C5.02751129 44.90263123 5.01596008 43.69588745 5.00405884 42.45257568 C4.89010146 35.79799614 4.27018505 29.52982852 3.06454468 22.98736572 C2.44579908 19.13398497 2.40156267 15.39206046 2.5 11.5 C2.50902344 10.79101562 2.51804688 10.08203125 2.52734375 9.3515625 C2.55032587 7.65088541 2.58615863 5.95038881 2.625 4.25 C1.93231018 4.24191315 1.23962036 4.23382629 0.52593994 4.22549438 C-6.67657998 4.13950935 -13.87882277 4.04000808 -21.08105469 3.93261719 C-23.7698189 3.89321989 -26.4585815 3.85863212 -29.14746094 3.828125 C-33.00995331 3.78251623 -36.87208997 3.72451385 -40.734375 3.6640625 C-41.9386615 3.65251129 -43.142948 3.64096008 -44.38372803 3.62905884 C-45.50458801 3.60918915 -46.625448 3.58931946 -47.78027344 3.56884766 C-48.76622498 3.55552399 -49.75217651 3.54220032 -50.76800537 3.5284729 C-53.42722747 3.24442119 -55.09258616 2.60544437 -57.375 1.25 C-56.71323257 1.25222061 -56.05146515 1.25444122 -55.36964417 1.25672913 C-48.5083978 1.27877965 -41.64716143 1.29390562 -34.78588867 1.30493164 C-32.22208243 1.3099737 -29.65827909 1.31680714 -27.09448242 1.32543945 C-23.41844979 1.33751064 -19.74245502 1.34322942 -16.06640625 1.34765625 C-14.33518272 1.35539818 -14.33518272 1.35539818 -12.56898499 1.36329651 C-11.50796066 1.36337204 -10.44693634 1.36344757 -9.35375977 1.36352539 C-7.94478172 1.36685631 -7.94478172 1.36685631 -6.50733948 1.37025452 C-3.58628628 1.20552003 -3.31264472 0.24538109 0 0 Z " fill="#CA882F" transform="translate(184.375,93.75)"/>
<path d="M0 0 C0.33 0 0.66 0 1 0 C1 1.65 1 3.3 1 5 C22.12 5 43.24 5 65 5 C64.67 5.99 64.34 6.98 64 8 C58.25146271 8.98616304 52.68498408 9.14571892 46.859375 9.1328125 C45.89654602 9.13376923 44.93371704 9.13472595 43.94171143 9.13571167 C41.91117284 9.13638971 39.88063204 9.13456175 37.85009766 9.13037109 C34.77371229 9.12504108 31.69747448 9.13031681 28.62109375 9.13671875 C26.63802052 9.13605745 24.65494737 9.1347752 22.671875 9.1328125 C21.76628845 9.13483673 20.8607019 9.13686096 19.92767334 9.13894653 C2.07481606 9.07481606 2.07481606 9.07481606 0 7 C-0.04092937 4.66702567 -0.04241723 2.33294775 0 0 Z " fill="#C0852A" transform="translate(117,179)"/>
<path d="M0 0 C0.33 0 0.66 0 1 0 C1.02894547 3.45831586 1.04678 6.91660072 1.0625 10.375 C1.07087891 11.35984375 1.07925781 12.3446875 1.08789062 13.359375 C1.09272461 14.77089844 1.09272461 14.77089844 1.09765625 16.2109375 C1.10551147 17.51490479 1.10551147 17.51490479 1.11352539 18.84521484 C1 21 1 21 0 23 C0.30954133 24.33905678 0.6463097 25.67192167 1 27 C1.08844308 28.42893979 1.13059064 29.86129625 1.1328125 31.29296875 C1.13474609 32.4850293 1.13474609 32.4850293 1.13671875 33.70117188 C1.13285156 34.52166016 1.12898438 35.34214844 1.125 36.1875 C1.13080078 37.43563477 1.13080078 37.43563477 1.13671875 38.70898438 C1.12667092 44.87332908 1.12667092 44.87332908 0 46 C-1.63472882 46.08700342 -3.27314055 46.10701063 -4.91015625 46.09765625 C-5.89951172 46.09443359 -6.88886719 46.09121094 -7.90820312 46.08789062 C-8.94912109 46.07951172 -9.99003906 46.07113281 -11.0625 46.0625 C-12.10728516 46.05798828 -13.15207031 46.05347656 -14.22851562 46.04882812 C-16.81903454 46.03699927 -19.40952422 46.01906319 -22 46 C-21.34 42.7 -20.68 39.4 -20 36 C-19.01 36 -18.02 36 -17 36 C-17 38.31 -17 40.62 -17 43 C-11.72 43 -6.44 43 -1 43 C-1 37.06 -1 31.12 -1 25 C-5.95 25 -10.9 25 -16 25 C-16 23.35 -16 21.7 -16 20 C-10.72 20 -5.44 20 0 20 C-0.08378906 18.72382813 -0.16757813 17.44765625 -0.25390625 16.1328125 C-0.35706232 14.46355965 -0.45991099 12.79428779 -0.5625 11.125 C-0.61857422 10.28324219 -0.67464844 9.44148438 -0.73242188 8.57421875 C-0.78076172 7.76855469 -0.82910156 6.96289062 -0.87890625 6.1328125 C-0.9260376 5.38918457 -0.97316895 4.64555664 -1.02172852 3.87939453 C-1 2 -1 2 0 0 Z " fill="#C98B2E" transform="translate(171,116)"/>
<path d="M0 0 C4.97279266 4.97279266 3.18041396 15.72925868 3.203125 22.265625 C3.20882507 23.53597595 3.21452515 24.8063269 3.22039795 26.11517334 C3.22981802 28.79133686 3.23673172 31.46738901 3.24023438 34.14355469 C3.24575024 37.57237726 3.26986808 41.00080897 3.29820633 44.42950821 C3.32127596 47.70818417 3.32327579 50.98687921 3.328125 54.265625 C3.3404718 55.49686096 3.3528186 56.72809692 3.36553955 57.99664307 C3.36253845 59.13502625 3.35953735 60.27340942 3.35644531 61.44628906 C3.36009094 62.44887756 3.36373657 63.45146606 3.36749268 64.48443604 C3 67 3 67 1.67694092 68.83538818 C-0.83076617 70.57695539 -3.03522227 70.19765185 -6 70 C-5.67 69.01 -5.34 68.02 -5 67 C-3.35 67 -1.7 67 0 67 C0 44.89 0 22.78 0 0 Z " fill="#C88C30" transform="translate(187,117)"/>
<path d="M0 0 C4.62 0 9.24 0 14 0 C14 0.66 14 1.32 14 2 C15.32 2 16.64 2 18 2 C18.33 1.34 18.66 0.68 19 0 C23.95 0 28.9 0 34 0 C34 5.94 34 11.88 34 18 C33.67 18 33.34 18 33 18 C33 12.39 33 6.78 33 1 C27.06 1.495 27.06 1.495 21 2 C20.67 7.61 20.34 13.22 20 19 C19.01 18.67 18.02 18.34 17 18 C17 16.35 17 14.7 17 13 C16.01 13.495 16.01 13.495 15 14 C14.26924352 16.3140622 13.59861742 18.64828869 13 21 C11.20906809 21.08086147 9.41710372 21.13912702 7.625 21.1875 C6.12839844 21.23970703 6.12839844 21.23970703 4.6015625 21.29296875 C3.74304688 21.19628906 2.88453125 21.09960938 2 21 C-0.06723714 17.89914429 -0.24497423 17.27068319 -0.1953125 13.76953125 C-0.18886719 12.96708984 -0.18242187 12.16464844 -0.17578125 11.33789062 C-0.15902344 10.50451172 -0.14226562 9.67113281 -0.125 8.8125 C-0.11597656 7.96751953 -0.10695312 7.12253906 -0.09765625 6.25195312 C-0.07410703 4.16784757 -0.03823647 2.08388783 0 0 Z M1 1 C1 6.61 1 12.22 1 18 C7.68566989 19.35131012 7.68566989 19.35131012 13 18 C13 12.39 13 6.78 13 1 C9.04 1 5.08 1 1 1 Z " fill="#A3712D" transform="translate(136,141)"/>
<path d="M0 0 C5.09698847 5.09698847 5.27134086 13.86135225 5.5 20.6875 C5.47645087 31.58289735 2.3765071 42.14374013 -4 51 C-4.66 50.67 -5.32 50.34 -6 50 C-6 49.34 -6 48.68 -6 48 C-5.34 48 -4.68 48 -4 48 C-4.061875 47.29875 -4.12375 46.5975 -4.1875 45.875 C-4 43 -4 43 -2.625 40.375 C3.13105342 28.42011982 1.81728706 12.83731582 0 0 Z " fill="#9F461D" transform="translate(202,34)"/>
<path d="M0 0 C0.66 0.33 1.32 0.66 2 1 C2 7.6 2 14.2 2 21 C-3.28 21 -8.56 21 -14 21 C-14 23.31 -14 25.62 -14 28 C-14.66 28.33 -15.32 28.66 -16 29 C-16.99 28.67 -17.98 28.34 -19 28 C-18.67 25.69 -18.34 23.38 -18 21 C-17.34 21 -16.68 21 -16 21 C-15.67 19.68 -15.34 18.36 -15 17 C-14.34 17 -13.68 17 -13 17 C-13 17.99 -13 18.98 -13 20 C-12.34 19.67 -11.68 19.34 -11 19 C-9.12137125 19.08744368 -7.24544819 19.24175542 -5.375 19.4375 C-3.60125 19.623125 -1.8275 19.80875 0 20 C-0.33 14.72 -0.66 9.44 -1 4 C-2.464375 3.87625 -3.92875 3.7525 -5.4375 3.625 C-7.93359375 3.4140625 -7.93359375 3.4140625 -10 3 C-10.33 2.34 -10.66 1.68 -11 1 C-7.10835652 -0.29721449 -4.10570774 -0.13033993 0 0 Z " fill="#C2782B" transform="translate(169,115)"/>
<path d="M0 0 C1.8125 1.68359375 1.8125 1.68359375 3.8125 4.68359375 C-0.34984667 4.48055245 -2.50184036 3.62571132 -5.4375 0.80859375 C-9.47401983 -2.96487198 -13.89230098 -4.10181331 -19.1875 -5.31640625 C-19.1875 -5.97640625 -19.1875 -6.63640625 -19.1875 -7.31640625 C-26.1175 -7.97640625 -33.0475 -8.63640625 -40.1875 -9.31640625 C-40.1875 -9.64640625 -40.1875 -9.97640625 -40.1875 -10.31640625 C-25.66842916 -13.27948193 -11.35551412 -9.104689 0 0 Z " fill="#AD5423" transform="translate(190.1875,17.31640625)"/>
<path d="M0 0 C0.66 0.33 1.32 0.66 2 1 C1.67 3.31 1.34 5.62 1 8 C0.34 8 -0.32 8 -1 8 C-1.33 9.65 -1.66 11.3 -2 13 C-6.62 13 -11.24 13 -16 13 C-15.67 11.68 -15.34 10.36 -15 9 C-15.33 8.34 -15.66 7.68 -16 7 C-11.38 7 -6.76 7 -2 7 C-2 5.35 -2 3.7 -2 2 C-1.34 1.34 -0.68 0.68 0 0 Z " fill="#C79235" transform="translate(152,128)"/>
<path d="M0 0 C4.5922273 3.74875698 8.48299773 7.60066771 12.3046875 12.125 C13.844342 13.82784368 15.3691594 15.17361673 17.1875 16.5625 C20.57035535 19.49430797 22.03786682 22.00026698 24 26 C24 26.66 24 27.32 24 28 C23.01 28.33 22.02 28.66 21 29 C21 27.35 21 25.7 21 24 C20.38125 23.7525 19.7625 23.505 19.125 23.25 C16.59641373 21.76259631 16.28160996 20.56321991 15 18 C14.41347656 17.731875 13.82695313 17.46375 13.22265625 17.1875 C10.28166503 15.61621471 8.60438538 13.52253323 6.4375 11 C4.00927798 8.18277108 2.10531867 6.07021245 -1 4 C-0.67 2.68 -0.34 1.36 0 0 Z " fill="#18363B" transform="translate(100,4)"/>
<path d="M0 0 C0.33 0 0.66 0 1 0 C1.02464928 5.25105442 1.04283568 10.50207545 1.05493164 15.75317383 C1.05997218 17.54094021 1.06680454 19.32870245 1.07543945 21.11645508 C1.0875173 23.68051168 1.09323094 26.24451397 1.09765625 28.80859375 C1.10281754 29.6127623 1.10797882 30.41693085 1.11329651 31.24546814 C1.11349215 33.16401715 1.06201983 35.08245368 1 37 C0 38 0 38 -2.28515625 38.09765625 C-3.65994141 38.08025391 -3.65994141 38.08025391 -5.0625 38.0625 C-5.98160156 38.05347656 -6.90070313 38.04445312 -7.84765625 38.03515625 C-8.55792969 38.02355469 -9.26820312 38.01195312 -10 38 C-10 37.01 -10 36.02 -10 35 C-7.03 35 -4.06 35 -1 35 C-1.00523682 33.97527588 -1.01047363 32.95055176 -1.01586914 31.89477539 C-1.03391969 28.10604724 -1.0454322 24.31732291 -1.05493164 20.52856445 C-1.05997174 18.88630536 -1.06680378 17.24405077 -1.07543945 15.60180664 C-1.08751926 13.24624521 -1.09323139 10.89074291 -1.09765625 8.53515625 C-1.10281754 7.79660904 -1.10797882 7.05806183 -1.11329651 6.2971344 C-1.1134925 4.53101912 -1.06194719 2.76502854 -1 1 C-0.67 0.67 -0.34 0.34 0 0 Z " fill="#A24A2B" transform="translate(94,149)"/>
<path d="M0 0 C0.33 0 0.66 0 1 0 C1.06943818 11.42192376 1.12277981 22.84379751 1.15543652 34.26588917 C1.17110823 39.56934362 1.19237401 44.87265391 1.22631836 50.17602539 C1.25885805 55.29181528 1.27684167 60.4074663 1.28463173 65.52335167 C1.29018494 67.47744623 1.30102868 69.431533 1.31719017 71.38556862 C1.33889283 74.11764721 1.34196994 76.84914824 1.34057617 79.58129883 C1.35675491 80.79941757 1.35675491 80.79941757 1.3732605 82.04214478 C1.34315743 87.47712682 1.34315743 87.47712682 -0.32206726 90.01445007 C-2.85861516 91.50431587 -5.12934613 91.19137692 -8 91 C-8 90.67 -8 90.34 -8 90 C-6.35 90 -4.7 90 -3 90 C-2.67 89.01 -2.34 88.02 -2 87 C-1.34 87 -0.68 87 0 87 C0 58.29 0 29.58 0 0 Z " fill="#34240F" transform="translate(190,97)"/>
<path d="M0 0 C6.15234375 -0.09765625 6.15234375 -0.09765625 8 0 C8.33 0.33 8.66 0.66 9 1 C11.59359322 1.08851529 14.16039691 1.11525945 16.75390625 1.09765625 C17.52935287 1.0962413 18.3047995 1.09482635 19.10374451 1.09336853 C21.59003494 1.08775345 24.0762366 1.07519846 26.5625 1.0625 C28.24413933 1.05748694 29.92578006 1.0529237 31.60742188 1.04882812 C35.73831566 1.03777913 39.86914276 1.02050445 44 1 C44 1.66 44 2.32 44 3 C29.32444533 4.02857455 14.6423995 4.85935232 0 3 C0 2.01 0 1.02 0 0 Z " fill="#74392B" transform="translate(13,184)"/>
<path d="M0 0 C1.06546953 3.1964086 1.07427838 5.65747276 1 9 C2.03125 9.515625 3.0625 10.03125 4.125 10.5625 C7.81044012 12.6406995 10.15122383 15.20170282 12.73828125 18.51171875 C13.95013837 20.13884196 13.95013837 20.13884196 16 21 C16.625 24.0625 16.625 24.0625 17 27 C15 27 15 27 12.75 24.9375 C10.20633594 22.2965782 7.85062637 19.50628223 5.484375 16.70703125 C3.4370086 14.35255989 1.23618755 12.17407122 -1 10 C-1.66 9.34 -2.32 8.68 -3 8 C-2.64700993 4.55834679 -1.95418308 2.93127462 0 0 Z " fill="#9D5A3A" transform="translate(126,22)"/>
<path d="M0 0 C4.62 0 9.24 0 14 0 C14.02683436 3.31255326 14.0467578 6.62489183 14.0625 9.9375 C14.07087891 10.88302734 14.07925781 11.82855469 14.08789062 12.80273438 C14.09111328 13.70185547 14.09433594 14.60097656 14.09765625 15.52734375 C14.10289307 16.35999756 14.10812988 17.19265137 14.11352539 18.05053711 C14 20 14 20 13 21 C11.19187276 21.15091913 9.37669383 21.22169008 7.5625 21.25 C6.57378906 21.27578125 5.58507812 21.3015625 4.56640625 21.328125 C3.71949219 21.21984375 2.87257812 21.1115625 2 21 C-0.06723714 17.89914429 -0.24497423 17.27068319 -0.1953125 13.76953125 C-0.18886719 12.96708984 -0.18242187 12.16464844 -0.17578125 11.33789062 C-0.15902344 10.50451172 -0.14226562 9.67113281 -0.125 8.8125 C-0.11597656 7.96751953 -0.10695312 7.12253906 -0.09765625 6.25195312 C-0.07410703 4.16784757 -0.03823647 2.08388783 0 0 Z M1 1 C1 6.61 1 12.22 1 18 C7.68566989 19.35131012 7.68566989 19.35131012 13 18 C13 12.39 13 6.78 13 1 C9.04 1 5.08 1 1 1 Z " fill="#7F521B" transform="translate(136,141)"/>
<path d="M0 0 C0.99 0.33 1.98 0.66 3 1 C1.33602442 5.24211059 -1.70471775 8.03622424 -4.875 11.1875 C-5.66970703 12.00637695 -5.66970703 12.00637695 -6.48046875 12.84179688 C-9.24437614 15.60913343 -11.15575291 17.28314457 -15 18 C-14.41889329 14.57245533 -13.31446376 12.95461339 -10.83984375 10.546875 C-10.21142578 9.928125 -9.58300781 9.309375 -8.93554688 8.671875 C-8.27619141 8.03765625 -7.61683594 7.4034375 -6.9375 6.75 C-6.27427734 6.1003125 -5.61105469 5.450625 -4.92773438 4.78125 C-3.29170683 3.1805324 -1.64909088 1.58723807 0 0 Z " fill="#183232" transform="translate(112,37)"/>
<path d="M0 0 C6.03392966 1.68388735 9.72625397 4.31032136 13.5625 9.1875 C15.70182323 12.00814289 15.70182323 12.00814289 18.0625 13.0625 C20.77963228 12.97485057 22.01603381 11.77139839 24 10 C22.63016497 13.16115776 22.0109362 13.9927092 19 16 C16.13137408 16.08038181 14.50856019 15.41160186 12.28662109 13.61328125 C10.36175824 11.79225766 8.51821549 9.91555812 6.6875 8 C6.04232422 7.34515625 5.39714844 6.6903125 4.73242188 6.015625 C0 1.16802249 0 1.16802249 0 0 Z " fill="#944216" transform="translate(171,77)"/>
<path d="M0 0 C0.67289063 0.30292969 1.34578125 0.60585938 2.0390625 0.91796875 C2.0390625 1.90796875 2.0390625 2.89796875 2.0390625 3.91796875 C1.2965625 4.04171875 0.5540625 4.16546875 -0.2109375 4.29296875 C-2.83887385 4.89022701 -4.71359737 5.44557349 -6.9609375 6.91796875 C-7.25355469 7.52511719 -7.54617187 8.13226563 -7.84765625 8.7578125 C-9.11455756 11.21604557 -10.59912616 12.75474302 -12.5859375 14.66796875 C-13.53339844 15.58835937 -13.53339844 15.58835937 -14.5 16.52734375 C-14.98210937 16.98625 -15.46421875 17.44515625 -15.9609375 17.91796875 C-16.63525391 16.13598633 -16.63525391 16.13598633 -16.9609375 13.91796875 C-15.20808106 11.10140975 -12.70183594 8.91770283 -10.3359375 6.60546875 C-9.70558594 5.94740234 -9.07523437 5.28933594 -8.42578125 4.61132812 C-3.68766195 -0.10216478 -3.68766195 -0.10216478 0 0 Z " fill="#174243" transform="translate(96.9609375,1.08203125)"/>
<path d="M0 0 C0.74334595 0.02361099 1.48669189 0.04722198 2.25256348 0.07154846 C4.5956974 0.1473051 6.93842434 0.23169964 9.28125 0.31640625 C10.88279347 0.36971542 12.48435601 0.42245498 14.0859375 0.47460938 C17.98462615 0.60279878 21.88297474 0.73872854 25.78125 0.87890625 C25.78125 1.20890625 25.78125 1.53890625 25.78125 1.87890625 C18.81110877 3.18580773 11.85243304 3.02586645 4.78125 3.00390625 C3.53601563 3.00777344 2.29078125 3.01164063 1.0078125 3.015625 C-4.83189321 3.0093993 -10.47125991 2.95656064 -16.21875 1.87890625 C-16.21875 1.54890625 -16.21875 1.21890625 -16.21875 0.87890625 C-10.7236781 0.07888843 -5.54189524 -0.21329956 0 0 Z " fill="#B19357" transform="translate(155.21875,185.12109375)"/>
<path d="M0 0 C0.66 0 1.32 0 2 0 C2 0.66 2 1.32 2 2 C2.99 1.67 3.98 1.34 5 1 C5.2475 1.639375 5.495 2.27875 5.75 2.9375 C6.81562433 5.18741541 6.81562433 5.18741541 9.125 5.75 C9.74375 5.8325 10.3625 5.915 11 6 C11 6.99 11 7.98 11 9 C11.78375 9.268125 12.5675 9.53625 13.375 9.8125 C16 11 16 11 18 14 C18 15.32 18 16.64 18 18 C18.99 18.33 19.98 18.66 21 19 C20.34 19.33 19.68 19.66 19 20 C18.278125 19.2575 17.55625 18.515 16.8125 17.75 C14.15316684 15.04139481 14.15316684 15.04139481 11.5625 13.125 C8.82811498 10.8574612 6.6817852 8.41654474 4.4296875 5.68359375 C3.00824041 3.95882557 3.00824041 3.95882557 1.3203125 2.34765625 C0 1 0 1 0 0 Z " fill="#B85C1C" transform="translate(143,49)"/>
<path d="M0 0 C0.33 0.99 0.66 1.98 1 3 C0.67 3.33 0.34 3.66 0 4 C-0.15988491 6.51880517 -0.25934225 9.01342266 -0.31640625 11.53515625 C-0.33718735 12.28840683 -0.35796844 13.04165741 -0.37937927 13.81773376 C-0.44495425 16.2325599 -0.50379621 18.64749798 -0.5625 21.0625 C-0.6056777 22.69597529 -0.64929173 24.3294391 -0.69335938 25.96289062 C-0.80064362 29.97514464 -0.90188821 33.98751164 -1 38 C-3.45095154 35.54904846 -3.25451426 34.16669818 -3.30354309 30.81898499 C-3.30263168 30.116884 -3.30172028 29.41478302 -3.30078125 28.69140625 C-3.30506638 27.96888168 -3.3093515 27.24635712 -3.31376648 26.50193787 C-3.31951237 24.97290088 -3.32000812 23.44383656 -3.31567383 21.91479492 C-3.31251671 19.57488326 -3.33595758 17.23623933 -3.36132812 14.89648438 C-3.36360139 13.41145993 -3.36430449 11.92643208 -3.36328125 10.44140625 C-3.372491 9.7413295 -3.38170074 9.04125275 -3.39118958 8.31996155 C-3.34475918 3.44492009 -3.34475918 3.44492009 -1.47729492 1.03491211 C-0.9897876 0.69339111 -0.50228027 0.35187012 0 0 Z " fill="#274E50" transform="translate(96,53)"/>
<path d="M0 0 C0 0.33 0 0.66 0 1 C-1.98 1 -3.96 1 -6 1 C-6 1.66 -6 2.32 -6 3 C-7.32 3 -8.64 3 -10 3 C-10 3.66 -10 4.32 -10 5 C-12.046875 6.69140625 -12.046875 6.69140625 -14.75 8.5625 C-15.63171875 9.18253906 -16.5134375 9.80257813 -17.421875 10.44140625 C-19.71323511 11.82663759 -21.38943105 12.55473941 -24 13 C-18.1875627 5.88925196 -10.26059326 -3.52707893 0 0 Z " fill="#AE572E" transform="translate(151,9)"/>
<path d="M0 0 C0.75410156 0.00451172 1.50820312 0.00902344 2.28515625 0.01367188 C4.14847127 0.02546501 6.01174555 0.04340058 7.875 0.0625 C7.875 1.0525 7.875 2.0425 7.875 3.0625 C5.2503399 3.25680855 2.62553235 3.44323238 0 3.625 C-1.11955078 3.70911133 -1.11955078 3.70911133 -2.26171875 3.79492188 C-7.8984375 4.17578125 -7.8984375 4.17578125 -10.125 3.0625 C-10.125 2.4025 -10.125 1.7425 -10.125 1.0625 C-6.93675432 -0.53162284 -3.49603338 -0.03924735 0 0 Z " fill="#A55441" transform="translate(67.125,183.9375)"/>
<path d="M0 0 C3.96 0 7.92 0 12 0 C11.01 0.495 11.01 0.495 10 1 C10.33 2.32 10.66 3.64 11 5 C7.37 5 3.74 5 0 5 C0 3.35 0 1.7 0 0 Z " fill="#C89444" transform="translate(155,136)"/>
<path d="M0 0 C0.99 0 1.98 0 3 0 C3 2.31 3 4.62 3 7 C6.3 7 9.6 7 13 7 C13 7.66 13 8.32 13 9 C8.05 9.33 3.1 9.66 -2 10 C-1.34 6.7 -0.68 3.4 0 0 Z " fill="#C69735" transform="translate(151,152)"/>
<path d="M0 0 C0.66 0.33 1.32 0.66 2 1 C1.67 7.27 1.34 13.54 1 20 C0.67 20 0.34 20 0 20 C-0.33 14.72 -0.66 9.44 -1 4 C-2.464375 3.87625 -3.92875 3.7525 -5.4375 3.625 C-7.93359375 3.4140625 -7.93359375 3.4140625 -10 3 C-10.33 2.34 -10.66 1.68 -11 1 C-7.10835652 -0.29721449 -4.10570774 -0.13033993 0 0 Z " fill="#A36B1E" transform="translate(169,115)"/>
<path d="M0 0 C4.90444056 4.90444056 5.16112868 12.87146813 5.20654297 19.49169922 C5.1790355 22.66352212 5.10739653 25.82981344 5 29 C4.67 29 4.34 29 4 29 C4 25.37 4 21.74 4 18 C3.34 18 2.68 18 2 18 C1.34 12.06 0.68 6.12 0 0 Z " fill="#72371F" transform="translate(202,34)"/>
<path d="M0 0 C0 0.66 0 1.32 0 2 C-1.60203467 2.36368892 -3.20674203 2.71561952 -4.8125 3.0625 C-5.70582031 3.25972656 -6.59914062 3.45695312 -7.51953125 3.66015625 C-10 4 -10 4 -13 3 C-13 8.61 -13 14.22 -13 20 C-13.33 20 -13.66 20 -14 20 C-14 13.73 -14 7.46 -14 1 C-3.375 0 -3.375 0 0 0 Z " fill="#865919" transform="translate(150,115)"/>
<path d="M0 0 C-0.66 0.66 -1.32 1.32 -2 2 C-4.58203125 1.57421875 -4.58203125 1.57421875 -7.8125 0.6875 C-14.54391709 -1.01037976 -21.07938654 -1.67152571 -28 -2 C-28 -2.33 -28 -2.66 -28 -3 C-18.958704 -4.84516245 -8.42536605 -3.81799571 0 0 Z " fill="#A8532C" transform="translate(178,10)"/>
<path d="M0 0 C5.94 0 11.88 0 18 0 C18 0.99 18 1.98 18 3 C11.88514973 3.09706112 6.06696699 2.77040851 0 2 C0 1.34 0 0.68 0 0 Z " fill="#906D38" transform="translate(120,185)"/>
<path d="M0 0 C0.33 0 0.66 0 1 0 C1 8.91 1 17.82 1 27 C0.34 27 -0.32 27 -1 27 C-1.88021369 20.28837062 -2.11381955 13.76594019 -2 7 C-1.34 7 -0.68 7 0 7 C0 4.69 0 2.38 0 0 Z " fill="#A5671B" transform="translate(117,160)"/>
<path d="M0 0 C0.66 0 1.32 0 2 0 C2 4.95 2 9.9 2 15 C1.34 15 0.68 15 0 15 C0 15.99 0 16.98 0 18 C-0.66 18 -1.32 18 -2 18 C-1.34 12.06 -0.68 6.12 0 0 Z " fill="#B5501A" transform="translate(204,52)"/>
<path d="M0 0 C1.875 0.75 1.875 0.75 4 2 C5.0828125 2.61875 5.0828125 2.61875 6.1875 3.25 C8.65450136 5.63193234 8.70319575 7.66095219 9 11 C7 11 7 11 4.625 8.8125 C2.27429889 6.29389166 0.10323374 3.72641411 -2 1 C-1.34 0.67 -0.68 0.34 0 0 Z " fill="#A54F1D" transform="translate(134,38)"/>
<path d="M0 0 C3.63 0 7.26 0 11 0 C9.68 1.32 8.36 2.64 7 4 C7.66 4.33 8.32 4.66 9 5 C6.69 5 4.38 5 2 5 C2 4.34 2 3.68 2 3 C1.34 3 0.68 3 0 3 C0 2.01 0 1.02 0 0 Z " fill="#CB9749" transform="translate(139,136)"/>
<path d="M0 0 C-0.28875 0.556875 -0.5775 1.11375 -0.875 1.6875 C-3.29752084 6.62471609 -3.29752084 6.62471609 -4 12 C-4.99 11.67 -5.98 11.34 -7 11 C-6.93993922 9.54052295 -6.8511311 8.08220728 -6.75 6.625 C-6.70359375 5.81289063 -6.6571875 5.00078125 -6.609375 4.1640625 C-6 2 -6 2 -4.078125 0.7109375 C-2 0 -2 0 0 0 Z " fill="#CD6223" transform="translate(133,20)"/>
<path d="M0 0 C0.721875 0.268125 1.44375 0.53625 2.1875 0.8125 C2.1875 1.8025 2.1875 2.7925 2.1875 3.8125 C1.465625 3.915625 0.74375 4.01875 0 4.125 C-3.05741993 4.87236932 -5.19579635 6.09295189 -7.8125 7.8125 C-7.8125 4.8125 -7.8125 4.8125 -5.625 2.0625 C-2.8125 -0.1875 -2.8125 -0.1875 0 0 Z " fill="#132E36" transform="translate(96.8125,1.1875)"/>
<path d="M0 0 C3.27742098 3.10026309 5.93104837 5.97098894 8 10 C8 10.66 8 11.32 8 12 C6.140625 11.77734375 6.140625 11.77734375 4 11 C2.734375 9.00390625 2.734375 9.00390625 1.75 6.5625 C1.41484375 5.75941406 1.0796875 4.95632812 0.734375 4.12890625 C0 2 0 2 0 0 Z " fill="#9B4519" transform="translate(194,22)"/>
<path d="M0 0 C2.97 0 5.94 0 9 0 C9 0.99 9 1.98 9 3 C6.29120665 4.35439668 3.99066732 4.06501451 1 4 C0.67 2.68 0.34 1.36 0 0 Z " fill="#A2533F" transform="translate(4,184)"/>
<path d="M0 0 C3.63 0 7.26 0 11 0 C10.67 0.99 10.34 1.98 10 3 C6.7 3 3.4 3 0 3 C0 2.01 0 1.02 0 0 Z " fill="#77361C" transform="translate(84,184)"/>
<path d="M0 0 C0.66 0 1.32 0 2 0 C2 0.66 2 1.32 2 2 C2.99 1.67 3.98 1.34 5 1 C5.2475 1.639375 5.495 2.27875 5.75 2.9375 C6.81562433 5.18741541 6.81562433 5.18741541 9.125 5.75 C9.74375 5.8325 10.3625 5.915 11 6 C11 7.98 11 9.96 11 12 C10.278125 11.2575 9.55625 10.515 8.8125 9.75 C6.10460629 6.99591028 6.10460629 6.99591028 3.25 4.875 C1 3 1 3 0 0 Z " fill="#A3421A" transform="translate(143,49)"/>
<path d="M0 0 C0.33 0 0.66 0 1 0 C0.67 5.61 0.34 11.22 0 17 C-0.99 16.67 -1.98 16.34 -3 16 C-2.52013969 10.43109483 -1.70084819 5.32932432 0 0 Z " fill="#705218" transform="translate(156,143)"/>
<path d="M0 0 C0.33 0 0.66 0 1 0 C1.0809313 2.60478883 1.14045434 5.20706653 1.1875 7.8125 C1.22520508 8.91948242 1.22520508 8.91948242 1.26367188 10.04882812 C1.33747625 15.48575047 1.33747625 15.48575047 -0.3125 18 C-2.85354989 19.50580734 -5.11775089 19.19214994 -8 19 C-8 18.67 -8 18.34 -8 18 C-6.35 18 -4.7 18 -3 18 C-2.67 17.01 -2.34 16.02 -2 15 C-1.34 15 -0.68 15 0 15 C0 10.05 0 5.1 0 0 Z " fill="#513D1A" transform="translate(190,169)"/>
<path d="M0 0 C6.75 -0.125 6.75 -0.125 9 1 C8.67 2.32 8.34 3.64 8 5 C2.25 3.125 2.25 3.125 0 2 C0 1.34 0 0.68 0 0 Z " fill="#BE7D3D" transform="translate(181,94)"/>
<path d="M0 0 C4.56609638 1.92790736 6.89955414 3.44903397 9 8 C9 8.66 9 9.32 9 10 C8.01 10.33 7.02 10.66 6 11 C6 9.35 6 7.7 6 6 C5.38125 5.7525 4.7625 5.505 4.125 5.25 C1.64931313 3.79371361 1.04874998 2.62187494 0 0 Z " fill="#22393B" transform="translate(115,22)"/>
<path d="M0 0 C3.72114571 2.31537955 6.61229661 4.28579473 9 8 C6.1875 7.8125 6.1875 7.8125 3 7 C1.14766715 4.59196729 0 3.07258075 0 0 Z " fill="#924415" transform="translate(185,14)"/>
<path d="M0 0 C-5.78591511 0.10477512 -11.29309366 -0.00749455 -17 -1 C-17 -1.33 -17 -1.66 -17 -2 C-4.60973006 -3.6800366 -4.60973006 -3.6800366 0 0 Z " fill="#957643" transform="translate(156,188)"/>
<path d="M0 0 C2.97 0 5.94 0 9 0 C9 0.99 9 1.98 9 3 C6.03 3 3.06 3 0 3 C0 2.01 0 1.02 0 0 Z " fill="#79331A" transform="translate(66,184)"/>
<path d="M0 0 C2.64 0 5.28 0 8 0 C8.33 0.99 8.66 1.98 9 3 C6.03 3 3.06 3 0 3 C0 2.01 0 1.02 0 0 Z " fill="#763117" transform="translate(13,184)"/>
<path d="M0 0 C1.98 0 3.96 0 6 0 C6 0.99 6 1.98 6 3 C1.38 3 -3.24 3 -8 3 C-8 2.67 -8 2.34 -8 2 C-5.36 2 -2.72 2 0 2 C0 1.34 0 0.68 0 0 Z " fill="#B9832E" transform="translate(164,159)"/>
<path d="M0 0 C4.29 0 8.58 0 13 0 C13 0.33 13 0.66 13 1 C9.7 1 6.4 1 3 1 C3 1.99 3 2.98 3 4 C3.66 4 4.32 4 5 4 C5 4.66 5 5.32 5 6 C3.35 6 1.7 6 0 6 C0.185625 5.38125 0.37125 4.7625 0.5625 4.125 C1.23686176 1.95839822 1.23686176 1.95839822 0 0 Z " fill="#AE7C39" transform="translate(136,135)"/>
<path d="M0 0 C3.96 0 7.92 0 12 0 C12 0.33 12 0.66 12 1 C8.37 1 4.74 1 1 1 C1 3.97 1 6.94 1 10 C0.67 10 0.34 10 0 10 C0 8.02 0 6.04 0 4 C-0.66 4 -1.32 4 -2 4 C-1.34 2.68 -0.68 1.36 0 0 Z " fill="#CF902C" transform="translate(135,115)"/>
<path d="M0 0 C0.33 0.66 0.66 1.32 1 2 C0.34 2 -0.32 2 -1 2 C-1.061875 2.598125 -1.12375 3.19625 -1.1875 3.8125 C-2.33938899 6.91373958 -4.06759592 7.64108103 -7 9 C-7.66 8.67 -8.32 8.34 -9 8 C-7.87811441 6.85111717 -6.75238316 5.70598863 -5.625 4.5625 C-4.99851563 3.92441406 -4.37203125 3.28632813 -3.7265625 2.62890625 C-2 1 -2 1 0 0 Z " fill="#A04820" transform="translate(136,13)"/>
<path d="M0 0 C0.66 0.33 1.32 0.66 2 1 C2 5.62 2 10.24 2 15 C1.01 14.67 0.02 14.34 -1 14 C-0.67 9.38 -0.34 4.76 0 0 Z " fill="#7B4419" transform="translate(155,118)"/>
<path d="M0 0 C1.52299523 2.93720508 2.80100302 5.9168649 4 9 C0.125 8.125 0.125 8.125 -1 7 C-1.125 4 -1.125 4 -1 1 C-0.67 0.67 -0.34 0.34 0 0 Z " fill="#C18324" transform="translate(134,153)"/>
<path d="M0 0 C1.46726798 3.81489674 0.43336419 6.29011622 -1 10 C-1.99 9.67 -2.98 9.34 -4 9 C-3.34 7.02 -2.68 5.04 -2 3 C-1.34 3 -0.68 3 0 3 C0 2.01 0 1.02 0 0 Z " fill="#874315" transform="translate(204,67)"/>
<path d="M0 0 C0 3 0 3 -1.6875 4.75 C-4 6 -4 6 -6.75 5.6875 C-7.4925 5.460625 -8.235 5.23375 -9 5 C-9 4.34 -9 3.68 -9 3 C-7.6078125 3.0928125 -7.6078125 3.0928125 -6.1875 3.1875 C-3.01604897 3.30894264 -3.01604897 3.30894264 -1.125 1.5 C-0.75375 1.005 -0.3825 0.51 0 0 Z " fill="#5E321A" transform="translate(194,87)"/>
<path d="M0 0 C1.60080151 4.00200378 0.29279692 7.04556236 -1 11 C-1.33 11 -1.66 11 -2 11 C-2 8.03 -2 5.06 -2 2 C-1.34 2 -0.68 2 0 2 C0 1.34 0 0.68 0 0 Z " fill="#C88A2A" transform="translate(189,97)"/>
<path d="M0 0 C0.66 0.99 1.32 1.98 2 3 C4.05003955 4.19232613 4.05003955 4.19232613 6 5 C5.67 6.32 5.34 7.64 5 9 C2.69 6.69 0.38 4.38 -2 2 C-1.34 1.34 -0.68 0.68 0 0 Z " fill="#833E17" transform="translate(165,68)"/>
<path d="M0 0 C0.33 1.32 0.66 2.64 1 4 C0.34 4 -0.32 4 -1 4 C-1.33 4.99 -1.66 5.98 -2 7 C-2.99 7 -3.98 7 -5 7 C-3.70700306 4.11562221 -2.34058637 2.12780579 0 0 Z " fill="#273739" transform="translate(7,88)"/>
<path d="M0 0 C-5.75 5 -5.75 5 -8 5 C-6.19780722 -0.02039417 -5.34443412 -1.60333024 0 0 Z " fill="#B95A20" transform="translate(197,86)"/>
<path d="M0 0 C-0.33 0.66 -0.66 1.32 -1 2 C-3.875 2.125 -3.875 2.125 -7 2 C-7.66 1.34 -8.32 0.68 -9 0 C-5.67465243 -1.10844919 -3.37817425 -0.84454356 0 0 Z " fill="#914E44" transform="translate(84,186)"/>
<path d="M0 0 C1.9375 0.8125 1.9375 0.8125 4 2 C4.33 2.99 4.66 3.98 5 5 C3.68 5 2.36 5 1 5 C0.34 4.01 -0.32 3.02 -1 2 C-0.67 1.34 -0.34 0.68 0 0 Z " fill="#BF6434" transform="translate(130,33)"/>
<path d="M0 0 C5.75 3.625 5.75 3.625 8 7 C5 7 5 7 2.3125 4.625 C0 2 0 2 0 0 Z " fill="#142128" transform="translate(112,17)"/>
<path d="M0 0 C0.99 0.33 1.98 0.66 3 1 C3 1.66 3 2.32 3 3 C1.02 3.99 -0.96 4.98 -3 6 C-3 3 -3 3 -1.5 1.3125 C-0.7575 0.6628125 -0.7575 0.6628125 0 0 Z " fill="#2E5253" transform="translate(112,37)"/>
<path d="M0 0 C2.5 2.3125 2.5 2.3125 5 5 C5 5.99 5 6.98 5 8 C2.21611025 6.29374499 1.14615794 5.52373261 0.25 2.3125 C0.1675 1.549375 0.085 0.78625 0 0 Z " fill="#6B3413" transform="translate(194,22)"/>
<path d="M0 0 C1.65 0 3.3 0 5 0 C5.66 1.65 6.32 3.3 7 5 C4.11562221 3.70700306 2.12780579 2.34058637 0 0 Z " fill="#C1602B" transform="translate(179,13)"/>
<path d="" fill="#8C8C00" transform="translate(0,0)"/>
<path d="" fill="#8C8C00" transform="translate(0,0)"/>
</svg>
